<svg xmlns="http://www.w3.org/2000/svg" width="210" height="100" viewBox="0 0 210 100"><path d="M7.28,0h195a7.51,7.51,0,0,1,7.48,7.54V92.46a7.51,7.51,0,0,1-7.48,7.54H7.28A7.51,7.51,0,0,1-.2,92.46V7.54A7.51,7.51,0,0,1,7.28,0Z" style="fill:#fff;fill-rule:evenodd"/><path d="M47.3,60.54c0-3.35,1.45-5.45,5.16-6a62.3,62.3,0,0,1,6.8-.51c0-2.66-1.17-4-4.09-4a54.33,54.33,0,0,0-6.66.49l-.34-3a44.84,44.84,0,0,1,7.39-.7c4.22,0,7.7,1.16,7.7,6v8.45c0,1.26,0,2.36-.16,3.52-2.14,1.21-5,1.69-8.57,1.69C49.33,66.52,47.3,64.48,47.3,60.54Zm12-3.85a30.44,30.44,0,0,0-5.22.46c-2,.47-2.7,1.08-2.7,3.32,0,2.4,1.33,3,3.79,3a10,10,0,0,0,4-.66c.08-.78.12-1.71.12-2.58Z" style="fill:#00416b"/><path d="M78.54,50.51a18.26,18.26,0,0,0-3.33-.4c-5,0-5.54,1.39-5.54,6.37,0,4.7.21,6.67,5.56,6.67a16.85,16.85,0,0,0,3.3-.42l.36,3.12a26.13,26.13,0,0,1-6,.67c-6.4,0-7.42-4.84-7.42-10,0-6.28,1.45-9.67,8.47-9.67a16.79,16.79,0,0,1,4.87.67Z" style="fill:#00416b"/><path d="M99.45,66.26H94.67L90,59.35l-4.56,6.91H81l6.92-9.92-6.41-9.27h4.68l4.18,6.26,4.16-6.26h4.36l-6.41,9.18Z" style="fill:#00416b"/><path d="M104.54,44.38c-1.93,0-2.48-.62-2.48-2.49s.58-2.49,2.48-2.49S107,40,107,41.89,106.48,44.38,104.54,44.38Zm-2.05,21.88V47.07h4.12V66.26Z" style="fill:#00416b"/><path d="M150.1,66.26H146V54.4c0-2.88-.69-4.34-3.8-4.34a7.3,7.3,0,0,0-2.94.63c-.08.78-.11,1.71-.11,2.58v13h-4.09V52c0-1.26.06-2.36.16-3.53a19.06,19.06,0,0,1,8-1.68A8,8,0,0,1,148,48a17,17,0,0,1,6.18-1.21c6,0,6.88,3.27,6.88,7.15v12.3H157V54.4c0-2.88-.69-4.34-3.79-4.34a7.56,7.56,0,0,0-3.37.84A12.9,12.9,0,0,1,150.1,54Z" style="fill:#00416b"/><path d="M127.74,56.35a15.85,15.85,0,0,0-1.12-4.66c-.16-.42-.34-.82-.53-1.2a.76.76,0,0,0,.13-.4,20.24,20.24,0,0,1,4.08.79,10.71,10.71,0,0,1,1.12,2.57A20.85,20.85,0,0,1,128,56.58.84.84,0,0,0,127.74,56.35Zm-2.52-7.44a1.07,1.07,0,0,1,.73.42,1.06,1.06,0,0,1,.17.26,21.39,21.39,0,0,1,3.77.66,10.93,10.93,0,0,0-7.08-4.5A19.93,19.93,0,0,1,125.22,48.91Zm-8.72,1.26a1,1,0,0,1,.28.42,27.2,27.2,0,0,1,6.35-1.06c.44,0,.89,0,1.33,0a.64.64,0,0,1,.11-.31,17.44,17.44,0,0,0-2.81-3.49l.07-.08a8.51,8.51,0,0,0-.88,0,11.2,11.2,0,0,0-2.55.3A13,13,0,0,0,116.5,50.17ZM125,66.64a10.89,10.89,0,0,0,3.33-2.09q-.81-.06-1.59-.15a1.24,1.24,0,0,1-.75.49C125.66,65.47,125.33,66.06,125,66.64ZM126.81,58c-.28.18-.57.35-.88.53a22.42,22.42,0,0,1-7.32,2.6l-.71.11a.88.88,0,0,1,0,.16,37.74,37.74,0,0,0,7.44,2,1.23,1.23,0,0,1,.78-.5,15.05,15.05,0,0,0,1-4.63A1.1,1.1,0,0,1,126.81,58Zm.23-1.68A15.29,15.29,0,0,0,126,52c-.17-.43-.35-.84-.55-1.23a1.19,1.19,0,0,1-.9-.75,26.66,26.66,0,0,0-7.68,1.08,1.19,1.19,0,0,1,0,.32,1.28,1.28,0,0,1-.72.87,22,22,0,0,0,.24,7.17,1.65,1.65,0,0,1,1.54,1.28,21.79,21.79,0,0,0,7.83-2.66c.32-.18.62-.36.91-.55a.5.5,0,0,1,0-.12A1,1,0,0,1,127,56.28Zm1.14.76a.44.44,0,0,1,0,.1,1.07,1.07,0,0,1-.43,1.1c0,.21,0,.42,0,.63a16.2,16.2,0,0,1-1,4.19.93.93,0,0,1,.21.52c.68.08,1.39.14,2.11.18a10.87,10.87,0,0,0,2.77-7.26,10.65,10.65,0,0,0-.28-2.48A21.45,21.45,0,0,1,128.18,57Zm-2.89,7.63a.87.87,0,0,1-.21-.5,38.18,38.18,0,0,1-7.54-2,1.77,1.77,0,0,1-.46.4,35.32,35.32,0,0,0,1.83,4.68,10.53,10.53,0,0,0,2,.19,11,11,0,0,0,2.94-.4A21.14,21.14,0,0,0,125.29,64.67Z" style="fill:#00416b"/><path d="M110.58,53.11a10.93,10.93,0,0,1,6.57-6.84,16.08,16.08,0,0,0-1.47,3.7,1.26,1.26,0,0,0-.84.9,1.49,1.49,0,0,0,0,.36A30.68,30.68,0,0,0,110.58,53.11Zm4,7.74a35.16,35.16,0,0,1-4.41-2.55,10.78,10.78,0,0,0,.65,2.29,25.49,25.49,0,0,0,3.75.34A.22.22,0,0,1,114.6,60.85Zm1.67,1.91h0a1.66,1.66,0,0,1-1.63-1.35,25.3,25.3,0,0,1-3.54-.28,11,11,0,0,0,6.8,5.83A33.57,33.57,0,0,1,116.27,62.76Zm-.79-3.14c-.08-.43-.15-.86-.21-1.28a22.72,22.72,0,0,1,0-6.16,1,1,0,0,1-.36-.46,29.6,29.6,0,0,0-4.5,2.06A11.08,11.08,0,0,0,110,56.5c0,.22,0,.45,0,.67a32.75,32.75,0,0,0,4.87,2.91A1.61,1.61,0,0,1,115.48,59.62Z" style="fill:#00416b"/><path d="M166.61,64.79a1.65,1.65,0,0,1-.13.68,1.63,1.63,0,0,1-.35.53,1.8,1.8,0,0,1-.52.34,1.67,1.67,0,0,1-.62.12,1.76,1.76,0,0,1-.66-.13,1.37,1.37,0,0,1-.52-.35,1.61,1.61,0,0,1-.34-.53,1.76,1.76,0,0,1-.12-.66,1.68,1.68,0,0,1,.13-.68,1.61,1.61,0,0,1,.36-.52,1.51,1.51,0,0,1,.52-.34,1.69,1.69,0,0,1,1.25,0,1.61,1.61,0,0,1,.52.34,1.59,1.59,0,0,1,.35.52A1.68,1.68,0,0,1,166.61,64.79Zm-.35,0a1.63,1.63,0,0,0-.1-.55,1.48,1.48,0,0,0-.27-.44,1.3,1.3,0,0,0-.41-.28,1.16,1.16,0,0,0-.49-.1,1.22,1.22,0,0,0-.51.1,1.42,1.42,0,0,0-.41.28,1.48,1.48,0,0,0-.27.44,1.63,1.63,0,0,0-.1.55,1.61,1.61,0,0,0,.09.54,1.34,1.34,0,0,0,.26.43,1.08,1.08,0,0,0,.4.3,1.32,1.32,0,0,0,1,0,1.18,1.18,0,0,0,.41-.29,1.43,1.43,0,0,0,.27-.43A1.64,1.64,0,0,0,166.26,64.79Zm-1.6.95h-.31V63.9h.7a.79.79,0,0,1,.5.13.45.45,0,0,1,.17.4.46.46,0,0,1-.13.37.78.78,0,0,1-.35.14l.52.8h-.34l-.48-.78h-.28Zm.33-1h.17a.2.2,0,0,0,.13,0,.25.25,0,0,0,.1-.08.35.35,0,0,0,0-.16.17.17,0,0,0,0-.13.18.18,0,0,0-.09-.08.28.28,0,0,0-.13,0h-.5v.54Z" style="fill:#00416b"/></svg>