<svg xmlns="http://www.w3.org/2000/svg" id="Layer_1" data-name="Layer 1" viewBox="0 0 203 57"><defs><style>.cls-1{fill:#fff}</style></defs><path d="M2.5,1.5H0V.23H6.35V1.5H3.88V8H2.5Z" class="cls-1"/><path d="M27.85.23h3.47A3.14,3.14,0,0,1,33.57,1a2.38,2.38,0,0,1,.65,1.68h0A2.34,2.34,0,0,1,32.36,5l2.1,3H32.85L30.93,5.31H29.22V8H27.85Zm3.37,3.86c1,0,1.61-.51,1.61-1.3h0c0-.83-.61-1.29-1.62-1.29h-2V4.09Z" class="cls-1"/><path d="M56,.23h5.77V1.46h-4.4v2h3.9V4.71h-3.9V6.8h4.46V8H56Z" class="cls-1"/><path d="M86.23.18H87.5L90.93,8H89.48l-.79-1.88H85L84.2,8H82.8Zm2,4.75L86.84,1.81,85.51,4.93Z" class="cls-1"/><path d="M111.66,6.89l.83-1a3.62,3.62,0,0,0,2.46,1c.84,0,1.38-.39,1.38-1h0c0-.56-.31-.86-1.76-1.19-1.66-.4-2.59-.89-2.59-2.33h0A2.37,2.37,0,0,1,114.47.11h.17a4.33,4.33,0,0,1,2.82,1l-.73,1a3.51,3.51,0,0,0-2.12-.81c-.8,0-1.26.41-1.26.93h0c0,.6.35.87,1.84,1.22,1.65.4,2.51,1,2.51,2.29h0c0,1.45-1.15,2.32-2.79,2.32A4.84,4.84,0,0,1,111.66,6.89Z" class="cls-1"/><path d="M139.25,4.72V.23h1.36V4.66c0,1.45.75,2.23,2,2.23s2-.74,2-2.17V.23H146V4.65c0,2.33-1.31,3.49-3.35,3.49a3.06,3.06,0,0,1-3.38-2.7A2.89,2.89,0,0,1,139.25,4.72Z" class="cls-1"/><path d="M167.85.23h3.47a3.11,3.11,0,0,1,2.25.78,2.38,2.38,0,0,1,.65,1.68h0a2.34,2.34,0,0,1-1.86,2.36l2.1,3h-1.61l-1.92-2.71h-1.71V8h-1.37Zm3.37,3.86c1,0,1.6-.51,1.6-1.3h0c0-.83-.6-1.29-1.61-1.29h-2V4.09Z" class="cls-1"/><path d="M196,.23h5.77V1.46h-4.41v2h3.91V4.71h-3.91V6.8h4.47V8H196Z" class="cls-1"/><path d="M56.59,56.88A18.73,18.73,0,0,0,75.27,39.23H37.92A18.72,18.72,0,0,0,56.59,56.88Z" class="cls-1"/><polygon points="83.04 56.22 114.09 56.22 98.57 39.23 83.04 56.22" class="cls-1"/><polygon points="114.09 20.12 83.04 20.12 98.57 37.11 114.09 20.12" class="cls-1"/><path d="M21,38.15H0V56.22H21a9,9,0,0,0,0-18.07Z" class="cls-1"/><path d="M193.94,38.15H173V56.22h20.94a9,9,0,1,0,0-18.07Z" class="cls-1"/><path d="M27.62,28.07a8,8,0,0,0-7.95-7.95H0V36H19.67A8,8,0,0,0,27.62,28.07Z" class="cls-1"/><path d="M174.19,28.07a8,8,0,0,0,8,8h19.64V20.12H182.15A8,8,0,0,0,174.19,28.07Z" class="cls-1"/><path d="M140.78,19.46A18.73,18.73,0,0,0,122.1,37.11h37.36A18.73,18.73,0,0,0,140.78,19.46Z" class="cls-1"/><path d="M56.59,19.46A18.73,18.73,0,0,0,37.92,37.11H75.27A18.73,18.73,0,0,0,56.59,19.46Z" class="cls-1"/><path d="M122.1,39.23a18.76,18.76,0,0,0,17.62,17.62V39.23Z" class="cls-1"/></svg>